<?xml version="1.0" encoding="UTF-8" standalone="no"?><!DOCTYPE svg PUBLIC "-//W3C//DTD SVG 1.1//EN" "http://www.w3.org/Graphics/SVG/1.1/DTD/svg11.dtd"><svg width="100%" height="100%" viewBox="0 0 1067 267" version="1.1" xmlns="http://www.w3.org/2000/svg" xmlns:xlink="http://www.w3.org/1999/xlink" xml:space="preserve" xmlns:serif="http://www.serif.com/" style="fill-rule:evenodd;clip-rule:evenodd;stroke-linecap:round;stroke-linejoin:round;stroke-miterlimit:1.5;"><g><path d="M318.885,119.657l0,106.25c0,19.547 -15.87,35.417 -35.417,35.417l-116.666,0c-19.547,0 -35.417,-15.87 -35.417,-35.417l0,-106.25c0,-19.547 15.87,-35.416 35.417,-35.416l116.666,-0c19.547,-0 35.417,15.869 35.417,35.416Z" style="fill:#2a5298;stroke:#2a5298;stroke-width:0.42px;"/><path d="M298.381,148.424c0,1.573 0.015,3.622 0.013,3.891c-0.007,0.916 -0.301,3.3 -3.156,3.379c-2.584,0.072 -7.212,0.039 -9.518,0.016l1.673,2.754c1.406,2.22 2.623,4.555 3.637,6.98c2.388,5.71 3.617,11.838 3.617,18.028l0,38.798c0,2.036 -1.65,3.686 -3.686,3.686l-15.428,-0c-2.036,-0 -3.686,-1.65 -3.686,-3.686l-0,-8.609l-93.424,0l0,8.609c0,2.036 -1.65,3.686 -3.686,3.686l-15.428,-0c-2.036,-0 -3.686,-1.65 -3.686,-3.686l-0,-38.798c-0,-6.19 1.229,-12.318 3.617,-18.028c1.014,-2.425 2.231,-4.76 3.638,-6.98l1.673,-2.754c-2.307,0.023 -6.935,0.056 -9.519,-0.016c-2.855,-0.079 -3.149,-2.463 -3.156,-3.379c-0.002,-0.269 0.013,-2.318 0.013,-3.891c-0,-1.506 0.524,-3.536 3.798,-3.536l11.724,-0c1.272,-0 2.166,0.757 2.759,1.57l10.246,-16.869c1.105,-1.818 2.444,-3.482 3.984,-4.948c4.487,-4.272 10.444,-5.032 16.638,-5.032l48.194,-0c6.194,-0 12.151,0.76 16.638,5.032c1.54,1.466 2.88,3.13 3.984,4.948l10.246,16.869c0.593,-0.813 1.487,-1.57 2.759,-1.57l11.724,-0c3.274,-0 3.798,2.03 3.798,3.536Zm-11.009,26.691c-0.336,-0.802 -1.118,-2.708 -3.242,-2.306c-1.723,0.325 -20.814,4.613 -27.953,6.218c-1.15,0.259 -1.522,1.559 -0.653,2.284l4.89,4.074c1.594,1.328 3.689,2.066 5.864,2.066l10.851,0c1.877,0 3.733,-0.378 5.416,-1.125c2.554,-1.133 5.16,-2.709 5.48,-4.072c0.447,-1.905 -0.318,-6.336 -0.653,-7.139Zm-113.659,-17.786l102.844,0c0,0 4.471,0.336 1.453,-4.47c-2.162,-3.443 -8.395,-13.48 -11.758,-18.899c-1.42,-2.287 -3.151,-4.368 -5.16,-6.161c-1.664,-1.486 -3.235,-2.511 -7.001,-2.659c-5.7,-0.223 -28.956,0 -28.956,0c0,0 -23.256,-0.223 -28.956,0c-3.766,0.148 -5.337,1.173 -7.001,2.659c-2.009,1.793 -3.74,3.874 -5.16,6.161c-3.363,5.419 -9.596,15.456 -11.758,18.899c-3.018,4.806 1.453,4.47 1.453,4.47Zm21.033,23.982c0.869,-0.725 0.497,-2.025 -0.653,-2.284c-7.138,-1.605 -26.23,-5.893 -27.953,-6.218c-2.124,-0.402 -2.906,1.504 -3.242,2.306c-0.335,0.803 -1.1,5.234 -0.653,7.139c0.32,1.363 2.926,2.939 5.48,4.072c1.683,0.747 3.539,1.125 5.416,1.125l10.851,0c2.175,0 4.27,-0.738 5.864,-2.066l4.89,-4.074Z" style="fill:#fff;stroke:#fff;stroke-width:2.08px;stroke-linecap:butt;stroke-miterlimit:2;"/><path d="M164.718,86.718l0,-21.138c0,-33.246 26.992,-60.237 60.238,-60.237l0.358,-0c33.246,-0 60.238,26.991 60.238,60.237l-0,21.138l-20.834,-0l0,-21.076c0,-21.782 -17.684,-39.466 -39.466,-39.466l-0.234,-0c-21.782,-0 -39.466,17.684 -39.466,39.466l-0,21.076l-20.834,-0Z" style="fill:#2a5298;stroke:#2a5298;stroke-width:0.42px;"/><g><path d="M391.243,176.912c-7.709,0 -14.687,-1.671 -20.935,-5.013c-6.247,-3.342 -11.193,-8.25 -14.839,-14.725c-3.646,-6.475 -5.469,-14.403 -5.469,-23.784c0,-9.456 1.823,-17.431 5.469,-23.925c3.646,-6.495 8.592,-11.403 14.839,-14.726c6.248,-3.323 13.226,-4.985 20.935,-4.985c7.71,0 14.679,1.662 20.907,4.985c6.228,3.323 11.175,8.231 14.84,14.726c3.665,6.494 5.497,14.469 5.497,23.925c-0,9.419 -1.832,17.365 -5.497,23.841c-3.665,6.475 -8.612,11.374 -14.84,14.697c-6.228,3.323 -13.197,4.984 -20.907,4.984Zm0,-20.052c5.735,0 10.093,-2.012 13.074,-6.038c2.981,-4.026 4.472,-9.836 4.472,-17.432c0,-7.633 -1.491,-13.472 -4.472,-17.517c-2.981,-4.044 -7.339,-6.067 -13.074,-6.067c-5.696,0 -10.045,2.023 -13.045,6.067c-3,4.045 -4.5,9.884 -4.5,17.517c-0,7.596 1.5,13.406 4.5,17.432c3,4.026 7.349,6.038 13.045,6.038Z" style="fill:#333;fill-rule:nonzero;stroke:#333;stroke-width:2.08px;stroke-linecap:butt;stroke-miterlimit:2;"/><path d="M441.943,175.773l0,-84.879l36.573,-0c6.304,-0 11.82,1.243 16.548,3.731c4.728,2.487 8.412,5.991 11.052,10.51c2.639,4.519 3.959,9.798 3.959,15.837c-0,6.076 -1.348,11.326 -4.045,15.751c-2.696,4.424 -6.475,7.842 -11.336,10.254c-4.861,2.411 -10.52,3.617 -16.976,3.617l-12.76,0l-0,25.179l-23.015,0Zm23.015,-43.066l8.089,-0c4.063,-0 7.244,-1.064 9.542,-3.19c2.297,-2.127 3.446,-4.975 3.446,-8.545c0,-3.684 -1.149,-6.542 -3.446,-8.574c-2.298,-2.032 -5.479,-3.047 -9.542,-3.047l-8.089,-0l-0,23.356Z" style="fill:#333;fill-rule:nonzero;stroke:#333;stroke-width:2.08px;stroke-linecap:butt;stroke-miterlimit:2;"/><path d="M518.506,175.773l-0,-84.879l61.182,-0l-0,18.571l-38.168,-0l0,14.355l34.977,-0l0,18.115l-34.977,0l0,15.267l37.94,0l-0,18.571l-60.954,0Z" style="fill:#333;fill-rule:nonzero;stroke:#333;stroke-width:2.08px;stroke-linecap:butt;stroke-miterlimit:2;"/><path d="M589.998,175.773l0,-84.879l25.065,-0l20.223,33.325c2.127,3.494 4.083,7.016 5.868,10.567c1.785,3.551 3.551,7.719 5.298,12.504c-0.266,-4.329 -0.551,-8.849 -0.855,-13.558c-0.303,-4.709 -0.455,-8.621 -0.455,-11.735l-0,-31.103l23.698,-0l-0,84.879l-25.066,0l-18.855,-30.989c-2.621,-4.33 -4.852,-8.337 -6.694,-12.02c-1.842,-3.684 -3.788,-7.9 -5.839,-12.647c0.342,4.861 0.646,9.485 0.912,13.871c0.265,4.387 0.398,7.985 0.398,10.796l0,30.989l-23.698,0Z" style="fill:#333;fill-rule:nonzero;stroke:#333;stroke-width:2.08px;stroke-linecap:butt;stroke-miterlimit:2;"/><path d="M676.929,175.773l27.514,-84.879l31.446,-0l28.54,84.879l-26.091,0l-4.899,-16.292l-26.09,-0l-4.672,16.292l-25.748,0Zm35.319,-33.496l16.064,0c-1.557,-5.165 -3.029,-10.491 -4.415,-15.979c-1.386,-5.488 -2.706,-11.004 -3.959,-16.549c-1.177,5.545 -2.383,11.061 -3.617,16.549c-1.234,5.488 -2.592,10.814 -4.073,15.979Z" style="fill:#333;fill-rule:nonzero;stroke:#333;stroke-width:2.08px;stroke-linecap:butt;stroke-miterlimit:2;"/><path d="M803.735,176.799c-7.367,-0 -13.795,-1.092 -19.283,-3.276c-5.487,-2.184 -9.75,-5.554 -12.789,-10.112c-3.038,-4.557 -4.576,-10.386 -4.614,-17.488l21.875,-0c0.19,3.912 1.538,6.883 4.045,8.915c2.506,2.032 5.981,3.048 10.425,3.048c3.683,-0 6.484,-0.674 8.402,-2.023c1.918,-1.348 2.877,-3.066 2.877,-5.155c-0,-1.899 -0.95,-3.494 -2.848,-4.785c-1.899,-1.291 -5.203,-2.431 -9.913,-3.418l-8.544,-1.823c-7.482,-1.595 -13.378,-4.32 -17.688,-8.175c-4.311,-3.854 -6.466,-9.105 -6.466,-15.751c-0,-5.393 1.462,-10.111 4.386,-14.156c2.925,-4.044 6.96,-7.197 12.106,-9.456c5.146,-2.26 11.079,-3.39 17.801,-3.39c6.874,0 12.808,1.149 17.802,3.447c4.994,2.297 8.849,5.525 11.565,9.684c2.715,4.158 4.092,9.01 4.13,14.555l-22.103,-0c-0.19,-2.773 -1.206,-4.928 -3.048,-6.466c-1.842,-1.538 -4.624,-2.307 -8.346,-2.307c-3.569,-0 -6.171,0.608 -7.804,1.823c-1.633,1.215 -2.449,2.772 -2.449,4.671c-0,2.013 0.892,3.646 2.677,4.899c1.785,1.253 4.69,2.317 8.716,3.19l6.95,1.481c9.38,1.975 16.15,5.184 20.308,9.628c4.159,4.443 6.238,9.893 6.238,16.349c-0,8.393 -3.048,14.84 -9.143,19.34c-6.096,4.5 -14.517,6.751 -25.265,6.751Z" style="fill:#333;fill-rule:nonzero;stroke:#333;stroke-width:2.08px;stroke-linecap:butt;stroke-miterlimit:2;"/><path d="M886.336,176.912c-7.747,0 -14.706,-1.671 -20.878,-5.013c-6.171,-3.342 -11.051,-8.25 -14.64,-14.725c-3.589,-6.475 -5.383,-14.403 -5.383,-23.784c-0,-9.456 1.822,-17.431 5.468,-23.925c3.646,-6.495 8.564,-11.403 14.755,-14.726c6.19,-3.323 13.083,-4.985 20.678,-4.985c7.064,0 13.359,1.253 18.885,3.76c5.525,2.507 10.007,6.152 13.444,10.937c3.437,4.786 5.497,10.596 6.18,17.432l-23.356,0c-0.455,-3.608 -1.908,-6.522 -4.358,-8.744c-2.449,-2.222 -5.82,-3.333 -10.111,-3.333c-5.773,0 -10.197,2.08 -13.273,6.238c-3.076,4.159 -4.615,9.941 -4.615,17.346c0,7.786 1.558,13.644 4.672,17.574c3.114,3.931 7.481,5.896 13.102,5.896c4.215,0 7.576,-1.11 10.083,-3.332c2.506,-2.222 4.045,-5.137 4.614,-8.744l23.356,-0c-0.266,3.607 -1.262,7.291 -2.99,11.051c-1.728,3.76 -4.197,7.235 -7.406,10.425c-3.209,3.19 -7.159,5.763 -11.849,7.719c-4.69,1.956 -10.149,2.933 -16.378,2.933Z" style="fill:#333;fill-rule:nonzero;stroke:#333;stroke-width:2.08px;stroke-linecap:butt;stroke-miterlimit:2;"/></g><g><path d="M359.326,238.731c-1.866,0 -3.499,-0.39 -4.899,-1.172c-1.4,-0.781 -2.487,-1.904 -3.263,-3.369c-0.776,-1.465 -1.164,-3.223 -1.164,-5.273c-0,-1.943 0.304,-3.814 0.911,-5.616c0.608,-1.801 1.482,-3.415 2.621,-4.842c1.139,-1.427 2.509,-2.555 4.11,-3.385c1.6,-0.83 3.393,-1.245 5.379,-1.245c1.855,-0 3.48,0.39 4.875,1.172c1.394,0.781 2.479,1.901 3.255,3.361c0.776,1.459 1.163,3.214 1.163,5.265c0,1.953 -0.303,3.83 -0.911,5.631c-0.608,1.802 -1.478,3.416 -2.612,4.843c-1.134,1.426 -2.499,2.555 -4.094,3.385c-1.595,0.83 -3.385,1.245 -5.371,1.245Zm0.147,-3.385c1.454,-0 2.75,-0.334 3.89,-1.001c1.139,-0.668 2.102,-1.563 2.889,-2.686c0.786,-1.123 1.383,-2.376 1.79,-3.76c0.407,-1.383 0.61,-2.785 0.61,-4.207c0,-2.127 -0.531,-3.738 -1.595,-4.834c-1.063,-1.096 -2.452,-1.644 -4.166,-1.644c-1.465,0 -2.767,0.334 -3.907,1.001c-1.139,0.668 -2.105,1.563 -2.897,2.686c-0.792,1.123 -1.394,2.376 -1.806,3.76c-0.413,1.383 -0.619,2.78 -0.619,4.191c0,2.126 0.535,3.74 1.603,4.842c1.069,1.101 2.472,1.652 4.208,1.652Z" style="fill:#333;fill-rule:nonzero;stroke:#333;stroke-width:2.08px;stroke-linecap:butt;stroke-miterlimit:2;"/><path d="M373.21,245.209l4.15,-25l3.483,0l-0.504,2.962l0.146,0c0.271,-0.412 0.643,-0.868 1.115,-1.367c0.472,-0.499 1.082,-0.928 1.831,-1.286c0.749,-0.358 1.671,-0.537 2.767,-0.537c1.931,0 3.488,0.635 4.671,1.904c1.183,1.27 1.774,3.049 1.774,5.339c0,1.378 -0.201,2.748 -0.602,4.11c-0.401,1.361 -0.99,2.604 -1.766,3.727c-0.776,1.123 -1.728,2.021 -2.856,2.694c-1.129,0.672 -2.426,1.009 -3.89,1.009c-1.14,-0 -2.038,-0.196 -2.694,-0.586c-0.657,-0.391 -1.147,-0.847 -1.473,-1.367c-0.326,-0.521 -0.559,-0.972 -0.7,-1.351l-0.26,-0l-1.612,9.749l-3.58,0Zm9.586,-9.489c1.031,0 1.934,-0.258 2.71,-0.773c0.776,-0.515 1.424,-1.191 1.945,-2.026c0.521,-0.836 0.912,-1.739 1.172,-2.71c0.26,-0.971 0.391,-1.918 0.391,-2.841c-0,-1.28 -0.299,-2.324 -0.896,-3.133c-0.596,-0.808 -1.529,-1.212 -2.799,-1.212c-1.02,-0 -1.912,0.247 -2.677,0.74c-0.765,0.494 -1.406,1.148 -1.921,1.962c-0.515,0.813 -0.903,1.709 -1.164,2.685c-0.26,0.977 -0.39,1.953 -0.39,2.93c-0,1.334 0.303,2.398 0.911,3.19c0.608,0.792 1.514,1.188 2.718,1.188Z" style="fill:#333;fill-rule:nonzero;stroke:#333;stroke-width:2.08px;stroke-linecap:butt;stroke-miterlimit:2;"/><path d="M402.865,238.796c-2.312,0 -4.124,-0.651 -5.437,-1.953c-1.313,-1.302 -1.969,-3.109 -1.969,-5.42c-0,-1.573 0.255,-3.057 0.765,-4.451c0.51,-1.395 1.223,-2.626 2.14,-3.695c0.917,-1.069 1.989,-1.907 3.215,-2.515c1.226,-0.607 2.555,-0.911 3.987,-0.911c1.812,-0 3.283,0.456 4.411,1.367c1.129,0.912 1.693,2.149 1.693,3.711c-0,2.007 -1.036,3.432 -3.109,4.273c-2.072,0.84 -5.279,1.299 -9.619,1.375c-0.022,0.293 -0.032,0.58 -0.032,0.862c-0,1.237 0.309,2.282 0.927,3.134c0.619,0.851 1.704,1.277 3.255,1.277c1.086,0 2.049,-0.233 2.889,-0.7c0.841,-0.466 1.468,-1.101 1.88,-1.904l3.272,0.7c-0.651,1.487 -1.715,2.667 -3.19,3.54c-1.476,0.874 -3.169,1.31 -5.078,1.31Zm-3.483,-10.677c2.289,-0.032 4.074,-0.152 5.354,-0.358c1.281,-0.206 2.179,-0.534 2.694,-0.985c0.515,-0.45 0.773,-1.055 0.773,-1.814c0,-0.651 -0.271,-1.172 -0.814,-1.563c-0.542,-0.391 -1.269,-0.586 -2.181,-0.586c-1.096,0 -2.029,0.255 -2.799,0.765c-0.771,0.51 -1.403,1.169 -1.896,1.978c-0.494,0.808 -0.871,1.663 -1.131,2.563Z" style="fill:#333;fill-rule:nonzero;stroke:#333;stroke-width:2.08px;stroke-linecap:butt;stroke-miterlimit:2;"/><path d="M419.661,227.745l-1.774,10.661l-3.58,-0l3.027,-18.197l3.402,0l-0.505,3.288c0.76,-1.226 1.636,-2.119 2.629,-2.678c0.993,-0.558 2.107,-0.838 3.344,-0.838c1.91,0 3.356,0.602 4.338,1.807c0.982,1.204 1.283,2.929 0.903,5.176l-1.888,11.442l-3.58,-0l1.871,-11.231c0.217,-1.324 0.049,-2.333 -0.504,-3.027c-0.554,-0.695 -1.4,-1.042 -2.539,-1.042c-1.259,0 -2.371,0.412 -3.337,1.237c-0.966,0.825 -1.568,1.959 -1.807,3.402Z" style="fill:#333;fill-rule:nonzero;stroke:#333;stroke-width:2.08px;stroke-linecap:butt;stroke-miterlimit:2;"/><path d="M441.667,238.406l12.646,-24.252l4.557,0l4.769,24.252l-3.857,-0l-1.172,-6.397l-9.538,0l-3.239,6.397l-4.166,-0Zm8.968,-9.489l7.405,-0l-0.748,-4.004c-0.141,-0.879 -0.301,-1.972 -0.48,-3.28c-0.18,-1.307 -0.372,-2.829 -0.578,-4.565c-0.727,1.671 -1.386,3.155 -1.978,4.451c-0.591,1.297 -1.12,2.428 -1.587,3.394l-2.034,4.004Z" style="fill:#333;fill-rule:nonzero;stroke:#333;stroke-width:2.08px;stroke-linecap:butt;stroke-miterlimit:2;"/><path d="M473.063,238.633c-1.844,0 -3.244,-0.577 -4.199,-1.733c-0.955,-1.156 -1.242,-2.867 -0.863,-5.135l1.905,-11.556l3.58,0l-1.823,11.117c-0.217,1.302 -0.048,2.324 0.505,3.068c0.553,0.743 1.427,1.114 2.62,1.114c1.194,0 2.265,-0.387 3.215,-1.163c0.949,-0.776 1.543,-1.896 1.782,-3.361l1.774,-10.775l3.597,0l-3.011,18.197l-3.434,-0l0.57,-3.516c-0.793,1.302 -1.712,2.252 -2.759,2.848c-1.047,0.597 -2.2,0.895 -3.459,0.895Z" style="fill:#333;fill-rule:nonzero;stroke:#333;stroke-width:2.08px;stroke-linecap:butt;stroke-miterlimit:2;"/><path d="M497.754,220.209l-0.472,2.913l-3.613,0l-1.726,10.368c-0.119,0.749 -0.048,1.289 0.212,1.62c0.26,0.331 0.738,0.496 1.432,0.496c0.185,0 0.429,-0.022 0.733,-0.065c0.303,-0.043 0.575,-0.087 0.813,-0.13l0.147,2.864c-0.792,0.25 -1.644,0.375 -2.555,0.375c-1.671,-0 -2.889,-0.429 -3.654,-1.286c-0.765,-0.857 -1.018,-2.051 -0.757,-3.581l1.758,-10.661l-2.653,0l0.472,-2.913l2.669,0l0.716,-4.329l3.581,-0l-0.716,4.329l3.613,0Z" style="fill:#333;fill-rule:nonzero;stroke:#333;stroke-width:2.08px;stroke-linecap:butt;stroke-miterlimit:2;"/><path d="M505.811,238.78c-2.29,-0 -4.078,-0.681 -5.363,-2.043c-1.286,-1.361 -1.929,-3.176 -1.929,-5.444c-0,-1.454 0.228,-2.856 0.683,-4.207c0.456,-1.351 1.115,-2.561 1.978,-3.63c0.863,-1.069 1.91,-1.915 3.141,-2.539c1.232,-0.624 2.623,-0.936 4.175,-0.936c2.29,0 4.08,0.678 5.371,2.035c1.291,1.356 1.937,3.179 1.937,5.468c0,1.465 -0.228,2.873 -0.684,4.224c-0.455,1.351 -1.117,2.558 -1.985,3.621c-0.868,1.064 -1.918,1.905 -3.15,2.523c-1.231,0.619 -2.623,0.928 -4.174,0.928Zm0.097,-3.027c1.053,-0 1.972,-0.253 2.759,-0.757c0.787,-0.505 1.443,-1.169 1.969,-1.994c0.527,-0.825 0.92,-1.72 1.18,-2.686c0.261,-0.965 0.391,-1.909 0.391,-2.832c0,-1.291 -0.304,-2.36 -0.911,-3.206c-0.608,-0.846 -1.579,-1.27 -2.914,-1.27c-1.031,0 -1.939,0.255 -2.726,0.765c-0.787,0.51 -1.443,1.178 -1.969,2.002c-0.527,0.825 -0.923,1.723 -1.189,2.694c-0.265,0.971 -0.398,1.918 -0.398,2.84c-0,1.27 0.306,2.328 0.919,3.174c0.613,0.846 1.576,1.27 2.889,1.27Z" style="fill:#333;fill-rule:nonzero;stroke:#333;stroke-width:2.08px;stroke-linecap:butt;stroke-miterlimit:2;"/><path d="M518.148,238.406l3.027,-18.197l3.402,0l-0.456,3.206c0.673,-1.226 1.506,-2.118 2.498,-2.677c0.993,-0.559 1.994,-0.838 3.003,-0.838c1.237,-0 2.198,0.347 2.881,1.041c0.684,0.695 1.112,1.623 1.286,2.784c0.651,-1.248 1.541,-2.198 2.669,-2.849c1.129,-0.651 2.328,-0.976 3.597,-0.976c1.096,-0 2.054,0.244 2.873,0.732c0.819,0.488 1.419,1.202 1.799,2.14c0.379,0.939 0.455,2.097 0.227,3.475l-2.018,12.159l-3.581,-0l2.002,-12.045c0.207,-1.215 0.03,-2.072 -0.529,-2.571c-0.558,-0.499 -1.261,-0.749 -2.107,-0.749c-1.205,0 -2.211,0.372 -3.02,1.115c-0.808,0.743 -1.304,1.647 -1.489,2.71l-1.904,11.54l-3.532,-0l2.035,-12.273c0.162,-0.987 -0.009,-1.749 -0.513,-2.286c-0.505,-0.537 -1.196,-0.806 -2.075,-0.806c-1.053,0 -2.032,0.364 -2.938,1.091c-0.906,0.727 -1.473,1.757 -1.701,3.092l-1.855,11.182l-3.581,-0Z" style="fill:#333;fill-rule:nonzero;stroke:#333;stroke-width:2.08px;stroke-linecap:butt;stroke-miterlimit:2;"/><path d="M555.566,238.78c-2.289,-0 -4.077,-0.681 -5.363,-2.043c-1.285,-1.361 -1.928,-3.176 -1.928,-5.444c-0,-1.454 0.228,-2.856 0.683,-4.207c0.456,-1.351 1.115,-2.561 1.978,-3.63c0.863,-1.069 1.91,-1.915 3.141,-2.539c1.232,-0.624 2.623,-0.936 4.175,-0.936c2.289,0 4.08,0.678 5.371,2.035c1.291,1.356 1.937,3.179 1.937,5.468c-0,1.465 -0.228,2.873 -0.684,4.224c-0.455,1.351 -1.117,2.558 -1.985,3.621c-0.868,1.064 -1.918,1.905 -3.15,2.523c-1.231,0.619 -2.623,0.928 -4.175,0.928Zm0.098,-3.027c1.053,-0 1.972,-0.253 2.759,-0.757c0.787,-0.505 1.443,-1.169 1.969,-1.994c0.527,-0.825 0.92,-1.72 1.18,-2.686c0.261,-0.965 0.391,-1.909 0.391,-2.832c-0,-1.291 -0.304,-2.36 -0.912,-3.206c-0.607,-0.846 -1.578,-1.27 -2.913,-1.27c-1.031,0 -1.94,0.255 -2.726,0.765c-0.787,0.51 -1.443,1.178 -1.97,2.002c-0.526,0.825 -0.922,1.723 -1.188,2.694c-0.266,0.971 -0.399,1.918 -0.399,2.84c0,1.27 0.307,2.328 0.92,3.174c0.613,0.846 1.576,1.27 2.889,1.27Z" style="fill:#333;fill-rule:nonzero;stroke:#333;stroke-width:2.08px;stroke-linecap:butt;stroke-miterlimit:2;"/><path d="M578.711,220.209l-0.472,2.913l-3.613,0l-1.726,10.368c-0.119,0.749 -0.048,1.289 0.212,1.62c0.26,0.331 0.738,0.496 1.432,0.496c0.185,0 0.429,-0.022 0.733,-0.065c0.304,-0.043 0.575,-0.087 0.813,-0.13l0.147,2.864c-0.792,0.25 -1.644,0.375 -2.555,0.375c-1.671,-0 -2.889,-0.429 -3.654,-1.286c-0.765,-0.857 -1.018,-2.051 -0.757,-3.581l1.758,-10.661l-2.653,0l0.472,-2.913l2.669,0l0.716,-4.329l3.581,-0l-0.716,4.329l3.613,0Z" style="fill:#333;fill-rule:nonzero;stroke:#333;stroke-width:2.08px;stroke-linecap:butt;stroke-miterlimit:2;"/><path d="M579.297,238.406l3.011,-18.197l3.581,0l-3.011,18.197l-3.581,-0Zm5.273,-20.98c-0.618,-0 -1.115,-0.206 -1.489,-0.619c-0.374,-0.412 -0.513,-0.911 -0.415,-1.497c0.098,-0.597 0.404,-1.101 0.92,-1.514c0.515,-0.412 1.077,-0.618 1.684,-0.618c0.63,-0 1.131,0.206 1.506,0.618c0.374,0.413 0.507,0.917 0.398,1.514c-0.086,0.586 -0.387,1.085 -0.903,1.497c-0.515,0.413 -1.082,0.619 -1.701,0.619Z" style="fill:#333;fill-rule:nonzero;stroke:#333;stroke-width:2.08px;stroke-linecap:butt;stroke-miterlimit:2;"/><path d="M592.92,238.406l-3.857,-18.197l3.71,0l1.888,10.335c0.152,0.803 0.272,1.603 0.359,2.401c0.086,0.798 0.162,1.592 0.227,2.384c0.337,-0.792 0.679,-1.586 1.026,-2.384c0.347,-0.798 0.727,-1.598 1.139,-2.401l5.29,-10.335l4.004,0l-9.88,18.197l-3.906,-0Z" style="fill:#333;fill-rule:nonzero;stroke:#333;stroke-width:2.08px;stroke-linecap:butt;stroke-miterlimit:2;"/><path d="M614.128,238.796c-2.312,0 -4.124,-0.651 -5.437,-1.953c-1.313,-1.302 -1.969,-3.109 -1.969,-5.42c0,-1.573 0.255,-3.057 0.765,-4.451c0.51,-1.395 1.223,-2.626 2.14,-3.695c0.917,-1.069 1.989,-1.907 3.215,-2.515c1.226,-0.607 2.555,-0.911 3.987,-0.911c1.812,-0 3.283,0.456 4.411,1.367c1.129,0.912 1.693,2.149 1.693,3.711c-0,2.007 -1.036,3.432 -3.109,4.273c-2.072,0.84 -5.279,1.299 -9.619,1.375c-0.022,0.293 -0.032,0.58 -0.032,0.862c-0,1.237 0.309,2.282 0.927,3.134c0.619,0.851 1.704,1.277 3.255,1.277c1.086,0 2.049,-0.233 2.889,-0.7c0.841,-0.466 1.468,-1.101 1.88,-1.904l3.272,0.7c-0.651,1.487 -1.715,2.667 -3.19,3.54c-1.476,0.874 -3.169,1.31 -5.078,1.31Zm-3.483,-10.677c2.289,-0.032 4.074,-0.152 5.354,-0.358c1.281,-0.206 2.179,-0.534 2.694,-0.985c0.515,-0.45 0.773,-1.055 0.773,-1.814c0,-0.651 -0.271,-1.172 -0.814,-1.563c-0.542,-0.391 -1.269,-0.586 -2.181,-0.586c-1.096,0 -2.029,0.255 -2.799,0.765c-0.771,0.51 -1.403,1.169 -1.896,1.978c-0.494,0.808 -0.871,1.663 -1.131,2.563Z" style="fill:#333;fill-rule:nonzero;stroke:#333;stroke-width:2.08px;stroke-linecap:butt;stroke-miterlimit:2;"/><path d="M643.083,238.813c-1.812,-0 -3.361,-0.288 -4.647,-0.863c-1.286,-0.575 -2.244,-1.397 -2.873,-2.466c-0.629,-1.069 -0.857,-2.341 -0.683,-3.817l3.727,0c-0.109,1.324 0.298,2.303 1.22,2.938c0.923,0.635 2.084,0.952 3.484,0.952c1.54,0 2.872,-0.355 3.995,-1.066c1.123,-0.71 1.788,-1.657 1.994,-2.84c0.109,-0.694 0.003,-1.267 -0.317,-1.717c-0.32,-0.45 -0.803,-0.825 -1.449,-1.123c-0.645,-0.298 -1.386,-0.567 -2.221,-0.806l-2.735,-0.781c-1.79,-0.499 -3.182,-1.256 -4.175,-2.271c-0.993,-1.014 -1.348,-2.384 -1.066,-4.109c0.217,-1.4 0.765,-2.626 1.644,-3.679c0.879,-1.052 1.994,-1.871 3.345,-2.457c1.351,-0.586 2.845,-0.879 4.484,-0.879c1.638,-0 3.065,0.287 4.28,0.862c1.216,0.576 2.127,1.368 2.735,2.377c0.608,1.009 0.825,2.164 0.651,3.467l-3.597,-0c0.054,-1.096 -0.32,-1.951 -1.123,-2.564c-0.803,-0.613 -1.899,-0.92 -3.288,-0.92c-1.476,0 -2.699,0.334 -3.67,1.001c-0.971,0.668 -1.544,1.511 -1.717,2.531c-0.141,0.76 -0.017,1.378 0.374,1.856c0.391,0.477 0.901,0.854 1.53,1.131c0.629,0.277 1.253,0.502 1.872,0.675l2.23,0.619c0.727,0.195 1.473,0.456 2.238,0.781c0.765,0.326 1.454,0.752 2.067,1.278c0.613,0.526 1.071,1.18 1.375,1.961c0.304,0.781 0.369,1.72 0.195,2.816c-0.228,1.367 -0.759,2.588 -1.595,3.662c-0.835,1.074 -1.95,1.918 -3.345,2.531c-1.394,0.613 -3.04,0.92 -4.939,0.92Z" style="fill:#333;fill-rule:nonzero;stroke:#333;stroke-width:2.08px;stroke-linecap:butt;stroke-miterlimit:2;"/><path d="M663.867,238.796c-2.311,0 -4.123,-0.651 -5.436,-1.953c-1.313,-1.302 -1.969,-3.109 -1.969,-5.42c-0,-1.573 0.255,-3.057 0.765,-4.451c0.51,-1.395 1.223,-2.626 2.14,-3.695c0.917,-1.069 1.988,-1.907 3.214,-2.515c1.227,-0.607 2.556,-0.911 3.988,-0.911c1.812,-0 3.282,0.456 4.411,1.367c1.128,0.912 1.693,2.149 1.693,3.711c-0,2.007 -1.037,3.432 -3.109,4.273c-2.073,0.84 -5.279,1.299 -9.619,1.375c-0.022,0.293 -0.033,0.58 -0.033,0.862c0,1.237 0.309,2.282 0.928,3.134c0.618,0.851 1.703,1.277 3.255,1.277c1.085,0 2.048,-0.233 2.889,-0.7c0.841,-0.466 1.468,-1.101 1.88,-1.904l3.271,0.7c-0.651,1.487 -1.714,2.667 -3.19,3.54c-1.475,0.874 -3.168,1.31 -5.078,1.31Zm-3.483,-10.677c2.29,-0.032 4.075,-0.152 5.355,-0.358c1.28,-0.206 2.178,-0.534 2.694,-0.985c0.515,-0.45 0.773,-1.055 0.773,-1.814c-0,-0.651 -0.272,-1.172 -0.814,-1.563c-0.543,-0.391 -1.27,-0.586 -2.181,-0.586c-1.096,0 -2.029,0.255 -2.8,0.765c-0.77,0.51 -1.402,1.169 -1.896,1.978c-0.493,0.808 -0.87,1.663 -1.131,2.563Z" style="fill:#333;fill-rule:nonzero;stroke:#333;stroke-width:2.08px;stroke-linecap:butt;stroke-miterlimit:2;"/><path d="M683.122,238.78c-2.279,-0 -4.064,-0.684 -5.355,-2.051c-1.291,-1.367 -1.937,-3.184 -1.937,-5.452c0,-1.433 0.223,-2.821 0.667,-4.167c0.445,-1.345 1.096,-2.555 1.954,-3.63c0.857,-1.074 1.904,-1.926 3.141,-2.555c1.237,-0.629 2.642,-0.944 4.215,-0.944c1.932,0 3.521,0.488 4.769,1.465c1.248,0.977 1.959,2.3 2.132,3.971l-3.466,0.684c-0.087,-0.933 -0.421,-1.682 -1.001,-2.246c-0.581,-0.564 -1.414,-0.847 -2.499,-0.847c-1.041,0 -1.956,0.253 -2.742,0.757c-0.787,0.505 -1.446,1.167 -1.978,1.986c-0.532,0.819 -0.93,1.714 -1.196,2.686c-0.266,0.971 -0.399,1.928 -0.399,2.872c0,1.27 0.298,2.328 0.895,3.174c0.597,0.846 1.557,1.27 2.881,1.27c1.172,-0 2.2,-0.312 3.084,-0.936c0.885,-0.624 1.528,-1.43 1.929,-2.417l3.272,0.927c-0.717,1.704 -1.815,3.039 -3.296,4.004c-1.481,0.966 -3.171,1.449 -5.07,1.449Z" style="fill:#333;fill-rule:nonzero;stroke:#333;stroke-width:2.08px;stroke-linecap:butt;stroke-miterlimit:2;"/><path d="M700.732,238.633c-1.844,0 -3.244,-0.577 -4.199,-1.733c-0.955,-1.156 -1.242,-2.867 -0.862,-5.135l1.904,-11.556l3.581,0l-1.823,11.117c-0.217,1.302 -0.049,2.324 0.504,3.068c0.554,0.743 1.427,1.114 2.621,1.114c1.193,0 2.265,-0.387 3.214,-1.163c0.95,-0.776 1.544,-1.896 1.782,-3.361l1.775,-10.775l3.597,0l-3.012,18.197l-3.434,-0l0.57,-3.516c-0.792,1.302 -1.712,2.252 -2.759,2.848c-1.047,0.597 -2.2,0.895 -3.459,0.895Z" style="fill:#333;fill-rule:nonzero;stroke:#333;stroke-width:2.08px;stroke-linecap:butt;stroke-miterlimit:2;"/><path d="M714.632,238.406l3.011,-18.197l3.467,0l-0.472,2.93l0.195,-0c0.489,-0.988 1.199,-1.766 2.132,-2.336c0.934,-0.57 1.932,-0.854 2.995,-0.854c0.217,-0 0.472,0.01 0.765,0.032c0.293,0.022 0.537,0.044 0.733,0.065l-0.57,3.418c-0.163,-0.043 -0.423,-0.087 -0.781,-0.13c-0.358,-0.043 -0.711,-0.065 -1.058,-0.065c-1.248,-0 -2.344,0.382 -3.288,1.147c-0.944,0.765 -1.519,1.745 -1.725,2.938l-1.823,11.052l-3.581,-0Z" style="fill:#333;fill-rule:nonzero;stroke:#333;stroke-width:2.08px;stroke-linecap:butt;stroke-miterlimit:2;"/><path d="M727.799,238.406l3.012,-18.197l3.58,0l-3.011,18.197l-3.581,-0Zm5.274,-20.98c-0.619,-0 -1.115,-0.206 -1.489,-0.619c-0.375,-0.412 -0.513,-0.911 -0.415,-1.497c0.097,-0.597 0.404,-1.101 0.919,-1.514c0.516,-0.412 1.077,-0.618 1.685,-0.618c0.629,-0 1.131,0.206 1.505,0.618c0.375,0.413 0.508,0.917 0.399,1.514c-0.087,0.586 -0.388,1.085 -0.903,1.497c-0.516,0.413 -1.083,0.619 -1.701,0.619Z" style="fill:#333;fill-rule:nonzero;stroke:#333;stroke-width:2.08px;stroke-linecap:butt;stroke-miterlimit:2;"/><path d="M747.005,220.209l-0.472,2.913l-3.613,0l-1.725,10.368c-0.12,0.749 -0.049,1.289 0.211,1.62c0.261,0.331 0.738,0.496 1.433,0.496c0.184,0 0.428,-0.022 0.732,-0.065c0.304,-0.043 0.575,-0.087 0.814,-0.13l0.146,2.864c-0.792,0.25 -1.644,0.375 -2.555,0.375c-1.671,-0 -2.889,-0.429 -3.654,-1.286c-0.765,-0.857 -1.017,-2.051 -0.757,-3.581l1.758,-10.661l-2.653,0l0.472,-2.913l2.669,0l0.716,-4.329l3.581,-0l-0.716,4.329l3.613,0Z" style="fill:#333;fill-rule:nonzero;stroke:#333;stroke-width:2.08px;stroke-linecap:butt;stroke-miterlimit:2;"/><path d="M746.956,244.949l1.351,-2.914l0.375,0.082c0.922,0.227 1.728,0.192 2.417,-0.106c0.689,-0.299 1.294,-1.028 1.814,-2.189l0.603,-1.335l-3.89,-18.278l3.727,0l1.904,10.335c0.141,0.792 0.25,1.582 0.326,2.368c0.076,0.787 0.146,1.571 0.211,2.352c0.337,-0.781 0.678,-1.565 1.026,-2.352c0.347,-0.786 0.721,-1.576 1.123,-2.368l5.371,-10.335l3.987,0l-11.344,20.719c-0.792,1.454 -1.723,2.553 -2.791,3.296c-1.069,0.744 -2.336,1.115 -3.801,1.115c-0.531,0 -1.014,-0.04 -1.448,-0.122c-0.434,-0.081 -0.754,-0.171 -0.961,-0.268Z" style="fill:#333;fill-rule:nonzero;stroke:#333;stroke-width:2.08px;stroke-linecap:butt;stroke-miterlimit:2;"/><path d="M786.833,238.731c-1.867,0 -3.497,-0.39 -4.891,-1.172c-1.395,-0.781 -2.477,-1.901 -3.247,-3.361c-0.771,-1.459 -1.156,-3.22 -1.156,-5.281c0,-1.932 0.304,-3.798 0.912,-5.599c0.607,-1.801 1.475,-3.416 2.604,-4.842c1.128,-1.427 2.493,-2.558 4.093,-3.394c1.601,-0.835 3.394,-1.253 5.379,-1.253c1.736,-0 3.272,0.323 4.606,0.968c1.335,0.646 2.382,1.576 3.142,2.792c0.759,1.215 1.128,2.685 1.107,4.41l-3.728,0c-0.043,-1.53 -0.556,-2.71 -1.538,-3.54c-0.982,-0.83 -2.211,-1.245 -3.686,-1.245c-1.454,0 -2.751,0.334 -3.89,1.001c-1.14,0.668 -2.108,1.563 -2.906,2.686c-0.797,1.123 -1.402,2.373 -1.814,3.751c-0.413,1.378 -0.619,2.778 -0.619,4.2c0,2.137 0.537,3.754 1.611,4.85c1.075,1.096 2.469,1.644 4.183,1.644c1.585,-0 3.049,-0.415 4.395,-1.245c1.345,-0.83 2.3,-2.016 2.865,-3.557l3.743,0c-0.521,1.606 -1.326,3.022 -2.417,4.248c-1.09,1.226 -2.384,2.189 -3.882,2.889c-1.497,0.7 -3.119,1.05 -4.866,1.05Z" style="fill:#333;fill-rule:nonzero;stroke:#333;stroke-width:2.08px;stroke-linecap:butt;stroke-miterlimit:2;"/><path d="M807.487,238.764c-1.476,-0 -2.724,-0.377 -3.744,-1.131c-1.019,-0.755 -1.741,-1.837 -2.164,-3.248c-0.423,-1.41 -0.472,-3.092 -0.147,-5.045c0.326,-1.975 0.939,-3.66 1.839,-5.054c0.901,-1.394 1.986,-2.46 3.256,-3.198c1.269,-0.738 2.631,-1.107 4.085,-1.107c1.128,0 2.007,0.187 2.637,0.562c0.629,0.374 1.096,0.811 1.399,1.31c0.304,0.499 0.527,0.938 0.668,1.318l0.228,0l0.472,-2.962l3.597,0l-3.011,18.197l-3.5,-0l0.456,-2.849l-0.309,0c-0.282,0.402 -0.665,0.855 -1.148,1.359c-0.483,0.505 -1.098,0.939 -1.847,1.302c-0.749,0.364 -1.671,0.546 -2.767,0.546Zm1.318,-3.044c1.53,0 2.797,-0.594 3.801,-1.782c1.003,-1.188 1.657,-2.732 1.961,-4.631c0.315,-1.899 0.166,-3.42 -0.448,-4.565c-0.613,-1.145 -1.684,-1.717 -3.214,-1.717c-1.063,-0 -1.994,0.279 -2.791,0.838c-0.798,0.559 -1.452,1.31 -1.962,2.254c-0.51,0.944 -0.862,2.008 -1.058,3.19c-0.206,1.205 -0.208,2.293 -0.008,3.264c0.201,0.971 0.611,1.738 1.229,2.303c0.619,0.564 1.449,0.846 2.49,0.846Z" style="fill:#333;fill-rule:nonzero;stroke:#333;stroke-width:2.08px;stroke-linecap:butt;stroke-miterlimit:2;"/><path d="M832.227,220.209l-0.472,2.913l-3.614,0l-1.725,10.368c-0.119,0.749 -0.049,1.289 0.212,1.62c0.26,0.331 0.737,0.496 1.432,0.496c0.184,0 0.428,-0.022 0.732,-0.065c0.304,-0.043 0.575,-0.087 0.814,-0.13l0.147,2.864c-0.792,0.25 -1.644,0.375 -2.556,0.375c-1.671,-0 -2.889,-0.429 -3.654,-1.286c-0.765,-0.857 -1.017,-2.051 -0.757,-3.581l1.758,-10.661l-2.653,0l0.472,-2.913l2.67,0l0.716,-4.329l3.58,-0l-0.716,4.329l3.614,0Z" style="fill:#333;fill-rule:nonzero;stroke:#333;stroke-width:2.08px;stroke-linecap:butt;stroke-miterlimit:2;"/><path d="M839.193,238.764c-1.476,-0 -2.724,-0.377 -3.744,-1.131c-1.02,-0.755 -1.741,-1.837 -2.164,-3.248c-0.424,-1.41 -0.472,-3.092 -0.147,-5.045c0.326,-1.975 0.939,-3.66 1.839,-5.054c0.901,-1.394 1.986,-2.46 3.255,-3.198c1.27,-0.738 2.632,-1.107 4.086,-1.107c1.128,0 2.007,0.187 2.636,0.562c0.63,0.374 1.096,0.811 1.4,1.31c0.304,0.499 0.526,0.938 0.667,1.318l0.228,0l0.472,-2.962l3.597,0l-3.011,18.197l-3.499,-0l0.456,-2.849l-0.31,0c-0.282,0.402 -0.664,0.855 -1.147,1.359c-0.483,0.505 -1.099,0.939 -1.847,1.302c-0.749,0.364 -1.671,0.546 -2.767,0.546Zm1.318,-3.044c1.53,0 2.797,-0.594 3.801,-1.782c1.003,-1.188 1.657,-2.732 1.961,-4.631c0.314,-1.899 0.165,-3.42 -0.448,-4.565c-0.613,-1.145 -1.684,-1.717 -3.214,-1.717c-1.064,-0 -1.994,0.279 -2.792,0.838c-0.797,0.559 -1.451,1.31 -1.961,2.254c-0.51,0.944 -0.863,2.008 -1.058,3.19c-0.206,1.205 -0.209,2.293 -0.008,3.264c0.201,0.971 0.61,1.738 1.229,2.303c0.618,0.564 1.448,0.846 2.49,0.846Z" style="fill:#333;fill-rule:nonzero;stroke:#333;stroke-width:2.08px;stroke-linecap:butt;stroke-miterlimit:2;"/><path d="M860.726,214.154l-4.02,24.252l-3.581,-0l4.02,-24.252l3.581,0Z" style="fill:#333;fill-rule:nonzero;stroke:#333;stroke-width:2.08px;stroke-linecap:butt;stroke-miterlimit:2;"/><path d="M869.336,238.78c-2.29,-0 -4.077,-0.681 -5.363,-2.043c-1.286,-1.361 -1.929,-3.176 -1.929,-5.444c0,-1.454 0.228,-2.856 0.684,-4.207c0.456,-1.351 1.115,-2.561 1.977,-3.63c0.863,-1.069 1.91,-1.915 3.142,-2.539c1.231,-0.624 2.623,-0.936 4.174,-0.936c2.29,0 4.08,0.678 5.372,2.035c1.291,1.356 1.936,3.179 1.936,5.468c0,1.465 -0.227,2.873 -0.683,4.224c-0.456,1.351 -1.118,2.558 -1.986,3.621c-0.868,1.064 -1.918,1.905 -3.149,2.523c-1.232,0.619 -2.623,0.928 -4.175,0.928Zm0.098,-3.027c1.052,-0 1.972,-0.253 2.758,-0.757c0.787,-0.505 1.444,-1.169 1.97,-1.994c0.526,-0.825 0.919,-1.72 1.18,-2.686c0.26,-0.965 0.39,-1.909 0.39,-2.832c0,-1.291 -0.303,-2.36 -0.911,-3.206c-0.608,-0.846 -1.579,-1.27 -2.913,-1.27c-1.031,0 -1.94,0.255 -2.727,0.765c-0.786,0.51 -1.443,1.178 -1.969,2.002c-0.526,0.825 -0.922,1.723 -1.188,2.694c-0.266,0.971 -0.399,1.918 -0.399,2.84c0,1.27 0.307,2.328 0.92,3.174c0.613,0.846 1.576,1.27 2.889,1.27Z" style="fill:#333;fill-rule:nonzero;stroke:#333;stroke-width:2.08px;stroke-linecap:butt;stroke-miterlimit:2;"/><path d="M888.298,245.6c-1.454,-0 -2.678,-0.19 -3.671,-0.57c-0.993,-0.38 -1.779,-0.879 -2.36,-1.497c-0.58,-0.619 -0.974,-1.286 -1.18,-2.002l3.093,-1.189c0.152,0.326 0.371,0.673 0.659,1.042c0.287,0.369 0.708,0.684 1.261,0.944c0.554,0.261 1.308,0.391 2.263,0.391c1.432,-0 2.658,-0.35 3.678,-1.05c1.02,-0.7 1.649,-1.744 1.888,-3.133l0.586,-3.434l-0.326,0.065c-0.282,0.401 -0.648,0.832 -1.098,1.294c-0.45,0.461 -1.028,0.854 -1.734,1.18c-0.705,0.325 -1.595,0.488 -2.669,0.488c-1.899,-0 -3.453,-0.589 -4.663,-1.766c-1.21,-1.177 -1.815,-2.889 -1.815,-5.135c0,-1.378 0.209,-2.734 0.627,-4.069c0.418,-1.335 1.02,-2.545 1.807,-3.63c0.786,-1.085 1.741,-1.947 2.864,-2.588c1.123,-0.64 2.395,-0.96 3.817,-0.96c1.161,0 2.07,0.195 2.726,0.586c0.657,0.391 1.148,0.846 1.473,1.367c0.326,0.521 0.559,0.966 0.7,1.335l0.309,-0.065l0.505,-2.995l3.499,0l-3.092,18.571c-0.272,1.595 -0.839,2.894 -1.701,3.898c-0.863,1.004 -1.937,1.742 -3.223,2.214c-1.286,0.472 -2.694,0.708 -4.223,0.708Zm1.285,-10.45c1.042,0 1.945,-0.233 2.71,-0.699c0.765,-0.467 1.397,-1.086 1.896,-1.856c0.5,-0.77 0.871,-1.619 1.115,-2.547c0.245,-0.928 0.367,-1.858 0.367,-2.791c-0,-1.292 -0.302,-2.32 -0.904,-3.085c-0.602,-0.765 -1.522,-1.147 -2.759,-1.147c-0.987,-0 -1.863,0.236 -2.628,0.708c-0.765,0.472 -1.411,1.098 -1.937,1.88c-0.526,0.781 -0.925,1.644 -1.196,2.588c-0.272,0.944 -0.407,1.888 -0.407,2.832c-0,1.258 0.309,2.259 0.928,3.003c0.618,0.743 1.557,1.114 2.815,1.114Z" style="fill:#333;fill-rule:nonzero;stroke:#333;stroke-width:2.08px;stroke-linecap:butt;stroke-miterlimit:2;"/><path d="M908.984,238.78c-1.953,-0 -3.518,-0.412 -4.695,-1.237c-1.178,-0.825 -1.831,-1.986 -1.962,-3.483c-0.021,-0.163 -0.032,-0.288 -0.032,-0.374l3.418,-0.472c0.087,0.954 0.415,1.638 0.985,2.05c0.569,0.413 1.369,0.619 2.4,0.619c1.161,-0 2.16,-0.255 2.995,-0.765c0.836,-0.51 1.313,-1.145 1.432,-1.904c0.065,-0.521 -0.067,-0.955 -0.398,-1.303c-0.331,-0.347 -0.904,-0.618 -1.717,-0.813l-2.946,-0.684c-3.201,-0.759 -4.617,-2.452 -4.249,-5.078c0.131,-1.096 0.557,-2.043 1.278,-2.84c0.722,-0.798 1.641,-1.416 2.759,-1.856c1.118,-0.439 2.338,-0.659 3.662,-0.659c1.877,0 3.315,0.38 4.313,1.139c0.998,0.76 1.622,1.742 1.872,2.946c0.054,0.185 0.092,0.375 0.114,0.57l-3.239,0.472c-0.119,-0.64 -0.404,-1.183 -0.855,-1.628c-0.45,-0.444 -1.196,-0.667 -2.237,-0.667c-1.01,0 -1.916,0.239 -2.719,0.716c-0.803,0.478 -1.258,1.096 -1.367,1.856c-0.087,0.553 0.049,1.001 0.407,1.343c0.358,0.341 1.004,0.621 1.937,0.838l2.816,0.651c3.179,0.749 4.595,2.403 4.248,4.964c-0.141,1.118 -0.592,2.097 -1.351,2.938c-0.76,0.841 -1.736,1.495 -2.93,1.961c-1.193,0.467 -2.506,0.7 -3.939,0.7Z" style="fill:#333;fill-rule:nonzero;stroke:#333;stroke-width:2.08px;stroke-linecap:butt;stroke-miterlimit:2;"/></g></g></svg>